<?xml version="1.0" standalone="no"?>
<!DOCTYPE svg PUBLIC "-//W3C//DTD SVG 20010904//EN"
 "http://www.w3.org/TR/2001/REC-SVG-20010904/DTD/svg10.dtd">
<svg version="1.0" xmlns="http://www.w3.org/2000/svg"
 width="80.000000pt" height="40.000000pt" viewBox="0 0 800.000000 400.000000"
 preserveAspectRatio="xMidYMid meet">
<metadata>
Created by potrace 1.15, written by Peter Selinger 2001-2017
</metadata>
<g transform="translate(0.000000,400.000000) scale(0.100000,-0.100000)"
fill="#ffa400" stroke="none">
<path d="M4190 3581 l-55 -6 70 -35 c122 -61 104 -76 -174 -135 -96 -20 -213
-48 -260 -61 -117 -33 -280 -115 -447 -225 -76 -51 -157 -100 -179 -110 -50
-23 -132 -24 -222 -3 -87 21 -338 13 -498 -15 -60 -11 -111 -18 -113 -16 -6 5
109 90 224 165 186 122 619 323 762 354 17 4 32 12 32 17 0 6 -8 8 -17 6 -10
-3 -36 -8 -58 -12 -174 -29 -596 -213 -943 -410 -128 -73 -273 -172 -279 -191
-3 -7 47 -13 154 -18 342 -14 901 -47 1143 -67 153 -13 307 -20 386 -18 130 4
131 4 215 46 112 56 326 198 561 375 199 151 408 323 408 337 0 5 -15 12 -32
15 -45 9 -610 15 -678 7z"/>
<path d="M5336 3559 c-238 -25 -453 -154 -811 -486 -207 -193 -384 -399 -401
-470 -5 -17 -1 -31 13 -45 l21 -20 313 41 c173 22 444 56 602 76 340 41 850
114 857 122 3 3 -58 3 -135 -1 -77 -3 -273 -10 -435 -16 -321 -11 -637 -28
-740 -39 l-65 -7 55 57 c88 90 82 88 316 104 256 18 305 22 417 41 174 29 282
77 311 138 21 45 21 48 -13 103 -80 132 -61 223 56 265 60 21 267 15 393 -11
276 -58 538 -180 586 -273 18 -35 11 -64 -47 -180 -53 -106 -52 -112 14 -104
111 14 330 61 334 73 3 6 -18 59 -46 116 -42 87 -60 114 -112 161 -244 220
-1013 405 -1483 355z"/>
<path d="M2995 2314 c-380 -50 -424 -66 -155 -58 191 6 240 0 240 -31 0 -9 -9
-15 -22 -15 -63 -2 -219 -17 -224 -23 -4 -3 8 -18 25 -33 18 -15 29 -30 24
-34 -4 -4 -44 -15 -88 -25 -126 -26 -241 -63 -266 -85 l-24 -21 30 5 c17 3
107 17 200 31 202 30 360 62 396 81 33 17 189 182 189 200 0 40 -70 42 -325 8z"/>
<path d="M7106 2195 c-59 -21 -131 -98 -177 -189 -82 -164 -120 -343 -125
-591 -3 -167 -3 -170 -26 -176 -13 -4 -115 -15 -228 -24 -491 -40 -679 -64
-1510 -199 -664 -108 -593 -100 -586 -73 57 230 57 487 0 686 -63 216 -168
353 -330 429 -55 25 -68 27 -190 27 l-131 0 -84 -42 c-305 -152 -461 -453
-499 -958 -15 -210 -26 -275 -47 -297 -27 -27 -357 -41 -828 -36 l-380 5 -84
27 c-46 15 -110 41 -141 57 -85 43 -201 66 -445 89 -230 21 -364 37 -603 71
-190 27 -209 23 -108 -24 121 -57 245 -101 418 -149 87 -23 158 -45 158 -48 0
-3 -37 -11 -82 -17 -110 -16 -231 -50 -271 -77 -154 -104 228 -193 1078 -252
312 -21 1437 -31 1830 -15 565 22 939 76 1660 237 622 140 654 145 1459 219
419 38 437 43 497 113 42 52 104 182 130 277 27 100 37 330 20 458 -48 357
-191 538 -375 472z m139 -174 c171 -77 240 -463 134 -746 -47 -126 -125 -215
-204 -229 -69 -13 -156 48 -206 145 -64 127 -83 373 -40 534 50 187 151 314
251 314 14 0 43 -8 65 -18z m-3180 -206 c108 -52 209 -194 251 -350 25 -94 30
-283 9 -390 -41 -221 -156 -400 -302 -472 -48 -23 -71 -28 -133 -28 -93 0
-152 26 -225 100 -62 61 -97 122 -138 240 -31 87 -32 95 -31 255 0 151 2 173
28 255 36 119 88 216 155 287 120 130 255 166 386 103z"/>
<path d="M7136 1930 c-69 -21 -142 -131 -172 -257 -20 -85 -14 -293 10 -368
33 -105 111 -185 178 -185 90 1 173 98 214 251 26 97 25 273 -3 364 -31 99
-74 162 -126 185 -46 21 -58 22 -101 10z"/>
<path d="M3857 1676 c-135 -50 -234 -197 -267 -396 -42 -253 66 -515 232 -565
64 -19 82 -19 146 0 110 33 216 170 259 335 20 80 23 253 4 330 -30 123 -98
230 -177 276 -54 32 -142 41 -197 20z"/>
<path d="M1762 2098 c3 -7 16 -68 29 -136 21 -114 25 -123 44 -118 296 78 429
116 438 125 16 16 -3 15 -136 -8 -184 -32 -182 -32 -229 -8 -31 16 -56 41 -88
89 -40 61 -70 89 -58 56z"/>
<path d="M525 1921 c20 -24 153 -90 245 -123 60 -21 80 -23 250 -22 184 0 293
12 473 50 42 9 77 21 77 26 0 4 -12 5 -27 1 -16 -4 -147 -7 -293 -7 -289 0
-447 17 -638 69 -112 30 -109 30 -87 6z"/>
<path d="M2240 1389 c-120 -9 -146 -19 -178 -67 l-14 -22 303 0 c194 0 298 -4
288 -10 -25 -15 -226 -38 -429 -51 -260 -16 -291 -26 -237 -77 42 -40 76 -43
368 -32 389 14 499 30 499 72 0 34 -40 105 -87 153 l-43 45 -177 -1 c-98 -1
-230 -6 -293 -10z"/>
</g>
</svg>
